HIERARCHY
ROOT joint_Root
{
	OFFSET 0.0 0.0 0.0
	CHANNELS 6 Xposition Yposition Zposition Zrotation Xrotation Yrotation 
	JOINT Hips
	{
		OFFSET -17.1583 93.1646 452.98
		CHANNELS 6 Xposition Yposition Zposition Zrotation Xrotation Yrotation 
		JOINT Spine
		{
			OFFSET 15.7357 0.0 0.0
			CHANNELS 6 Xposition Yposition Zposition Zrotation Xrotation Yrotation 
			JOINT Chest
			{
				OFFSET 8.98455 -0.406207 0.0
				CHANNELS 6 Xposition Yposition Zposition Zrotation Xrotation Yrotation 
				JOINT Neck
				{
					OFFSET 16.3773 0.0 0.0
					CHANNELS 6 Xposition Yposition Zposition Zrotation Xrotation Yrotation 
					JOINT Head
					{
						OFFSET 6.45672 0.0 0.0
						CHANNELS 6 Xposition Yposition Zposition Zrotation Xrotation Yrotation 
						End Site
						{
							OFFSET 0.0 0.0 0.0
						}
					}
				}
				JOINT Shoulder_L
				{
					OFFSET 12.9942 -0.242716 4.98039
					CHANNELS 6 Xposition Yposition Zposition Zrotation Xrotation Yrotation 
					JOINT UpperArm_L
					{
						OFFSET 5.34809 0.0 0.0
						CHANNELS 6 Xposition Yposition Zposition Zrotation Xrotation Yrotation 
						JOINT LowerArm_L
						{
							OFFSET 24.3286 1.87007e-05 0.0
							CHANNELS 6 Xposition Yposition Zposition Zrotation Xrotation Yrotation 
							JOINT Hand_L
							{
								OFFSET 22.2916 0.0 0.0
								CHANNELS 6 Xposition Yposition Zposition Zrotation Xrotation Yrotation 
								End Site
								{
									OFFSET 0.0 0.0 0.0
								}
							}
						}
					}
				}
				JOINT Shoulder_R
				{
					OFFSET 12.9945 -0.242716 -4.98039
					CHANNELS 6 Xposition Yposition Zposition Zrotation Xrotation Yrotation 
					JOINT UpperArm_R
					{
						OFFSET -5.34813 0.0 0.0
						CHANNELS 6 Xposition Yposition Zposition Zrotation Xrotation Yrotation 
						JOINT LowerArm_R
						{
							OFFSET -24.3289 0.000322201 0.0
							CHANNELS 6 Xposition Yposition Zposition Zrotation Xrotation Yrotation 
							JOINT Hand_R
							{
								OFFSET -22.2915 -0.000108084 0.0
								CHANNELS 6 Xposition Yposition Zposition Zrotation Xrotation Yrotation 
								End Site
								{
									OFFSET 0.0 0.0 0.0
								}
							}
						}
					}
				}
			}
		}
		JOINT UpperLeg_L
		{
			OFFSET -2.19248 -6.46944 0.0
			CHANNELS 6 Xposition Yposition Zposition Zrotation Xrotation Yrotation 
			JOINT LowerLeg_L
			{
				OFFSET 39.0811 0.0 -1.23785e-05
				CHANNELS 6 Xposition Yposition Zposition Zrotation Xrotation Yrotation 
				JOINT Foot_L
				{
					OFFSET 40.9854 0.0 -1.26872e-05
					CHANNELS 6 Xposition Yposition Zposition Zrotation Xrotation Yrotation 
					JOINT Toes_L
					{
						OFFSET 11.7543 0.0 0.0
						CHANNELS 6 Xposition Yposition Zposition Zrotation Xrotation Yrotation 
						End Site
						{
							OFFSET 0.0 0.0 0.0
						}
					}
				}
			}
		}
		JOINT UpperLeg_R
		{
			OFFSET -2.19251 6.46944 0.0
			CHANNELS 6 Xposition Yposition Zposition Zrotation Xrotation Yrotation 
			JOINT LowerLeg_R
			{
				OFFSET -39.0811 -0.00228153 -0.0401928
				CHANNELS 6 Xposition Yposition Zposition Zrotation Xrotation Yrotation 
				JOINT Foot_R
				{
					OFFSET -40.9854 0.0 0.0
					CHANNELS 6 Xposition Yposition Zposition Zrotation Xrotation Yrotation 
					JOINT Toes_R
					{
						OFFSET -11.7543 0.0 0.0
						CHANNELS 6 Xposition Yposition Zposition Zrotation Xrotation Yrotation 
						End Site
						{
							OFFSET 0.0 0.0 0.0
						}
					}
				}
			}
		}
	}
}
MOTION
Frames:	5
Frame Time:	0.0333333
0.000000 0.000000 0.000000 0.000000 0.000000 -0.000000 0.139145 92.645800 2.751180 86.422300 -4.468540 4.765760 15.735700 0.000005 -0.000001 85.350700 86.506100 -93.380400 8.984550 -0.406207 -0.000000 -0.748656 0.027620 -16.051500 16.377300 -0.000001 -0.000001 6.819710 -0.478984 -9.001450 6.456720 -0.000001 -0.000000 -2.272190 5.415600 -22.665200 12.994200 -0.242716 4.980390 -92.493200 8.684810 -73.914700 5.348090 -0.000007 -0.000001 -56.553400 8.122600 2.153410 24.328600 0.000019 0.000005 11.686700 27.420200 -24.188000 22.291600 -0.000001 0.000005 3.285720 4.782850 11.639000 12.994500 -0.242716 -4.980390 94.525400 -8.078260 -60.610500 -5.348130 -0.000001 -0.000004 -28.824400 -63.113200 -73.556800 -24.328900 0.000322 -0.000009 1.312960 8.622760 -8.698130 -22.291500 -0.000108 -0.000004 43.454800 5.527090 -7.667880 -2.192480 -6.469440 -0.000000 -172.578000 -8.313660 4.040880 39.081100 -0.000007 -0.000012 0.041739 -0.124517 18.531700 40.985400 -0.000006 -0.000013 0.016703 8.041910 -70.857800 11.754300 -0.000000 0.000003 -0.003909 0.218118 -7.724820 -2.192510 6.469440 -0.000001 175.834000 9.125690 -173.765000 -39.081100 -0.002282 -0.040193 -0.023560 0.125170 12.126500 -40.985400 0.000008 0.000006 -10.457800 13.859500 -65.571500 -11.754300 -0.000006 -0.000006 -0.010141 0.272354 -5.508070
0.000000 0.000000 0.000000 0.000000 0.000000 -0.000000 0.134789 92.637600 2.750350 86.429100 -4.422330 4.762620 15.735700 0.000005 -0.000001 85.054800 86.492100 -93.046300 8.984550 -0.406207 -0.000000 -0.727090 -0.015065 -15.975300 16.377300 -0.000001 -0.000001 6.823620 -0.501665 -8.879870 6.456720 -0.000001 -0.000000 -2.305060 5.452550 -22.637200 12.994200 -0.242716 4.980390 -92.483400 8.640450 -73.896900 5.348090 -0.000007 -0.000001 -56.687200 8.118650 2.125940 24.328600 0.000019 0.000005 11.676600 27.560000 -24.068900 22.291600 -0.000001 0.000005 3.307910 4.784170 11.614600 12.994500 -0.242716 -4.980390 94.528000 -8.090410 -60.633100 -5.348130 -0.000001 -0.000004 -29.332000 -63.036500 -73.991800 -24.328900 0.000322 -0.000009 1.241660 8.497820 -8.351040 -22.291500 -0.000108 -0.000004 43.565200 5.526290 -7.632830 -2.192480 -6.469440 -0.000000 -172.569000 -8.322280 3.995490 39.081100 -0.000007 -0.000012 0.039696 -0.118133 18.574100 40.985400 -0.000006 -0.000013 0.033528 8.128440 -70.756300 11.754300 -0.000000 0.000003 -0.003558 0.214392 -7.876560 -2.192510 6.469440 -0.000001 175.832000 9.150320 -173.792000 -39.081100 -0.002282 -0.040193 -0.023430 0.124129 12.167800 -40.985400 0.000008 0.000006 -10.546100 13.818100 -65.545100 -11.754300 -0.000006 -0.000006 -0.010168 0.272556 -5.499810
0.000000 0.000000 0.000000 0.000000 0.000000 -0.000000 0.130730 92.652900 2.734770 86.435300 -4.411500 4.706470 15.735700 0.000005 -0.000001 84.941400 86.504900 -92.892200 8.984550 -0.406207 -0.000000 -0.755329 -0.027641 -15.894300 16.377300 -0.000001 -0.000001 6.806340 -0.495753 -8.824710 6.456720 -0.000001 -0.000000 -2.283180 5.401420 -22.560600 12.994200 -0.242716 4.980390 -92.476100 8.627230 -73.918700 5.348090 -0.000007 -0.000001 -56.795300 8.180540 2.161840 24.328600 0.000019 0.000005 11.610600 27.476300 -24.004300 22.291600 -0.000001 0.000005 3.257040 4.785940 11.581500 12.994500 -0.242716 -4.980390 94.534000 -8.092690 -60.607000 -5.348130 -0.000001 -0.000004 -29.445300 -62.917300 -74.148500 -24.328900 0.000322 -0.000009 1.147040 8.208940 -7.989590 -22.291500 -0.000108 -0.000004 43.332800 5.524210 -7.542670 -2.192480 -6.469440 -0.000000 -172.596000 -8.326220 3.989880 39.081100 -0.000007 -0.000012 0.041747 -0.124883 18.484500 40.985400 -0.000006 -0.000013 0.024050 8.096080 -70.845200 11.754300 -0.000000 0.000003 -0.003929 0.218333 -7.716070 -2.192510 6.469440 -0.000001 175.839000 9.172800 -173.865000 -39.081100 -0.002282 -0.040193 -0.023217 0.122973 12.184200 -40.985400 0.000008 0.000006 -10.482500 13.804100 -65.569500 -11.754300 -0.000006 -0.000006 -0.010320 0.273681 -5.453790
0.000000 0.000000 0.000000 0.000000 0.000000 -0.000000 0.125889 92.648800 2.750940 86.415200 -4.448570 4.741670 15.735700 0.000005 -0.000001 84.881200 86.497300 -92.791300 8.984550 -0.406207 -0.000000 -0.742122 -0.040225 -15.812800 16.377300 -0.000001 -0.000001 6.773200 -0.503456 -8.696270 6.456720 -0.000001 -0.000000 -2.239650 5.380940 -22.542400 12.994200 -0.242716 4.980390 -92.477200 8.613930 -73.888800 5.348090 -0.000007 -0.000001 -56.876300 8.188750 2.138090 24.328600 0.000019 0.000005 11.623100 27.597100 -23.941900 22.291600 -0.000001 0.000005 3.194920 4.787500 11.552300 12.994500 -0.242716 -4.980390 94.529800 -8.077250 -60.583600 -5.348130 -0.000001 -0.000004 -29.475800 -62.759800 -74.240100 -24.328900 0.000322 -0.000009 1.106000 8.176260 -7.737590 -22.291500 -0.000108 -0.000004 43.169100 5.521890 -7.443060 -2.192480 -6.469440 -0.000000 -172.547000 -8.362860 4.027670 39.081100 -0.000007 -0.000012 0.040236 -0.120263 18.498900 40.985400 -0.000006 -0.000013 0.016822 8.119110 -70.793200 11.754300 -0.000000 0.000003 -0.003794 0.216912 -7.773950 -2.192510 6.469440 -0.000001 175.861000 9.134190 -173.834000 -39.081100 -0.002282 -0.040193 -0.023377 0.123590 12.196200 -40.985400 0.000008 0.000006 -10.513000 13.800900 -65.538000 -11.754300 -0.000006 -0.000006 -0.010151 0.272429 -5.505010
0.000000 0.000000 0.000000 0.000000 0.000000 -0.000000 0.129098 92.655800 2.742680 86.441300 -4.518380 4.680620 15.735700 0.000005 -0.000001 84.903600 86.521800 -92.792100 8.984550 -0.406207 -0.000000 -0.790290 -0.031406 -15.769900 16.377300 -0.000001 -0.000001 6.785250 -0.534016 -8.650260 6.456720 -0.000001 -0.000000 -2.289960 5.308650 -22.465600 12.994200 -0.242716 4.980390 -92.469000 8.585760 -73.890100 5.348090 -0.000007 -0.000001 -56.987100 8.137370 2.131540 24.328600 0.000019 0.000005 11.648000 27.639700 -23.958400 22.291600 -0.000001 0.000005 3.239990 4.787410 11.553900 12.994500 -0.242716 -4.980390 94.536300 -8.059380 -60.494300 -5.348130 -0.000001 -0.000004 -29.732700 -62.607000 -74.422500 -24.328900 0.000322 -0.000009 1.144300 8.392910 -7.799350 -22.291500 -0.000108 -0.000004 43.113700 5.520420 -7.380830 -2.192480 -6.469440 -0.000000 -172.589000 -8.408580 4.012550 39.081100 -0.000007 -0.000012 0.039587 -0.118870 18.419200 40.985400 -0.000006 -0.000013 0.011289 8.082260 -70.762600 11.754300 -0.000000 0.000003 -0.003778 0.216743 -7.780830 -2.192510 6.469440 -0.000001 175.836000 9.101310 -173.891000 -39.081100 -0.002282 -0.040193 -0.022896 0.121854 12.148700 -40.985400 0.000008 0.000006 -10.585600 13.851200 -65.485200 -11.754300 -0.000006 -0.000006 -0.010384 0.274155 -5.434390
